<svg version="1.1" xmlns="http://www.w3.org/2000/svg" xmlns:xlink="http://www.w3.org/1999/xlink" width="725.1826171875" height="348"><defs/><g><g><rect fill="#C0C0C0" stroke="none" x="207" y="223" width="121.642578125" height="131" transform="matrix(1 0 0 1 -54 -206)" fill-opacity="0.2"/></g><g><rect fill="#ffffff" stroke="none" x="200" y="216" width="121.642578125" height="131" transform="matrix(1 0 0 1 -54 -206)"/></g><g><path fill="none" stroke="#000000" paint-order="fill stroke markers" d=" M 146 10 L 267.642578125 10 L 267.642578125 141 L 146 141 L 146 10 Z Z" stroke-miterlimit="10" stroke-dasharray=""/></g><g><path fill="none" stroke="#000000" paint-order="fill stroke markers" d=" M 146 35 L 268.642578125 35" stroke-miterlimit="10" stroke-dasharray=""/></g><g><path fill="none" stroke="#000000" paint-order="fill stroke markers" d=" M 146 58 L 268.642578125 58" stroke-miterlimit="10" stroke-dasharray=""/></g><g><g><path fill="none" stroke="none"/><text fill="#000000" stroke="none" font-family="Arial" font-size="13px" font-style="normal" font-weight="bold" text-decoration="undefined" x="261.3212890625" y="229.5" text-anchor="middle" dominant-baseline="central" transform="matrix(1 0 0 1 -54 -206)">AudioManager</text></g></g><g><g><path fill="none" stroke="none"/><text fill="#000000" stroke="none" font-family="Arial" font-size="13px" font-style="normal" font-weight="normal" text-decoration="undefined" x="205" y="252.5" text-anchor="start" dominant-baseline="central" transform="matrix(1 0 0 1 -54 -206)">-source</text></g></g><g><g><path fill="none" stroke="none"/><text fill="#000000" stroke="none" font-family="Arial" font-size="13px" font-style="normal" font-weight="normal" text-decoration="undefined" x="205" y="275.5" text-anchor="start" dominant-baseline="central" transform="matrix(1 0 0 1 -54 -206)">+AudioManager()</text></g></g><g><g><path fill="none" stroke="none"/><text fill="#000000" stroke="none" font-family="Arial" font-size="13px" font-style="normal" font-weight="normal" text-decoration="undefined" x="205" y="290.5" text-anchor="start" dominant-baseline="central" transform="matrix(1 0 0 1 -54 -206)">+GetAudioSource()</text></g></g><g><g><path fill="none" stroke="none"/><text fill="#000000" stroke="none" font-family="Arial" font-size="13px" font-style="normal" font-weight="normal" text-decoration="undefined" x="205" y="305.5" text-anchor="start" dominant-baseline="central" transform="matrix(1 0 0 1 -54 -206)">+PlaySong()</text></g></g><g><g><path fill="none" stroke="none"/><text fill="#000000" stroke="none" font-family="Arial" font-size="13px" font-style="normal" font-weight="normal" text-decoration="undefined" x="205" y="320.5" text-anchor="start" dominant-baseline="central" transform="matrix(1 0 0 1 -54 -206)">+SwitchState()</text></g></g><g><rect fill="#C0C0C0" stroke="none" x="519" y="255" width="105.01806640625" height="73" transform="matrix(1 0 0 1 -54 -206)" fill-opacity="0.2"/></g><g><rect fill="#ffffff" stroke="none" x="512" y="248" width="105.01806640625" height="73" transform="matrix(1 0 0 1 -54 -206)"/></g><g><path fill="none" stroke="#000000" paint-order="fill stroke markers" d=" M 458 42 L 563.01806640625 42 L 563.01806640625 115 L 458 115 L 458 42 Z Z" stroke-miterlimit="10" stroke-dasharray=""/></g><g><path fill="none" stroke="#000000" paint-order="fill stroke markers" d=" M 458 67 L 564.01806640625 67" stroke-miterlimit="10" stroke-dasharray=""/></g><g><path fill="none" stroke="#000000" paint-order="fill stroke markers" d=" M 458 77 L 564.01806640625 77" stroke-miterlimit="10" stroke-dasharray=""/></g><g><g><path fill="none" stroke="none"/><text fill="#000000" stroke="none" font-family="Arial" font-size="13px" font-style="normal" font-weight="bold" text-decoration="undefined" x="565.009033203125" y="261.5" text-anchor="middle" dominant-baseline="central" transform="matrix(1 0 0 1 -54 -206)">IAudioState</text></g></g><g><g><path fill="none" stroke="none"/><text fill="#000000" stroke="none" font-family="Arial" font-size="13px" font-style="normal" font-weight="normal" text-decoration="undefined" x="517" y="294.5" text-anchor="start" dominant-baseline="central" transform="matrix(1 0 0 1 -54 -206)">+OnEnterState()</text></g></g><g><g><path fill="none" stroke="none"/><text fill="#000000" stroke="none" font-family="Arial" font-size="13px" font-style="normal" font-weight="normal" text-decoration="undefined" x="517" y="309.5" text-anchor="start" dominant-baseline="central" transform="matrix(1 0 0 1 -54 -206)">+PlaySong()</text></g></g><g><path fill="none" stroke="#000000" paint-order="fill stroke markers" d=" M 269 76 L 457 77" stroke-miterlimit="10" stroke-dasharray=""/></g><g><path fill="none" stroke="#000000" paint-order="fill stroke markers" d=" M 446.8150781722186 81.15540219015946 L 457 77 L 446.8598596425017 72.73648577694007" stroke-miterlimit="10" stroke-dasharray=""/></g><g><rect fill="#ffffff" stroke="none" x="377" y="261" width="81.30078125" height="13" transform="matrix(1 0 0 1 -54 -206)"/></g><g><g><path fill="none" stroke="none"/><text fill="#000000" stroke="none" font-family="Arial" font-size="13px" font-style="normal" font-weight="normal" text-decoration="undefined" x="417.650390625" y="267.5" text-anchor="middle" dominant-baseline="central" transform="matrix(1 0 0 1 -54 -206)">-currentAudio</text></g></g><g><path fill="#ffffff" stroke="none" paint-order="stroke fill markers" d=" M 10 210 L 153.39892578125 210 L 163.39892578125 220 L 163.39892578125 234 L 10 234 L 10 210"/></g><g><path fill="none" stroke="#000000" paint-order="fill stroke markers" d=" M 10 210 L 153.39892578125 210 L 163.39892578125 220 L 163.39892578125 234 L 10 234 L 10 210 L 10 210" stroke-miterlimit="10" stroke-dasharray=""/></g><g><path fill="none" stroke="#000000" paint-order="fill stroke markers" d=" M 153.39892578125 210 L 153.39892578125 220 L 163.39892578125 220 L 153.39892578125 210" stroke-miterlimit="10" stroke-dasharray=""/></g><g><g><path fill="none" stroke="none"/><text fill="#000000" stroke="none" font-family="Arial" font-size="13px" font-style="normal" font-weight="normal" text-decoration="undefined" x="69" y="421" text-anchor="start" dominant-baseline="text-before-edge" transform="matrix(1 0 0 1 -54 -206)">AudioScript.PlaySong()</text></g></g><g><path fill="none" stroke="#000000" paint-order="fill stroke markers" d=" M 98 209 L 152 142" stroke-miterlimit="10" stroke-dasharray="3"/></g><g><rect fill="#C0C0C0" stroke="none" x="383" y="447" width="105.01806640625" height="104" transform="matrix(1 0 0 1 -54 -206)" fill-opacity="0.2"/></g><g><rect fill="#ffffff" stroke="none" x="376" y="440" width="105.01806640625" height="104" transform="matrix(1 0 0 1 -54 -206)"/></g><g><path fill="none" stroke="#000000" paint-order="fill stroke markers" d=" M 322 234 L 427.01806640625 234 L 427.01806640625 338 L 322 338 L 322 234 Z Z" stroke-miterlimit="10" stroke-dasharray=""/></g><g><path fill="none" stroke="#000000" paint-order="fill stroke markers" d=" M 322 259 L 428.01806640625 259" stroke-miterlimit="10" stroke-dasharray=""/></g><g><path fill="none" stroke="#000000" paint-order="fill stroke markers" d=" M 322 282 L 428.01806640625 282" stroke-miterlimit="10" stroke-dasharray=""/></g><g><g><path fill="none" stroke="none"/><text fill="#000000" stroke="none" font-family="Arial" font-size="13px" font-style="normal" font-weight="bold" text-decoration="undefined" x="429.009033203125" y="453.5" text-anchor="middle" dominant-baseline="central" transform="matrix(1 0 0 1 -54 -206)">MainSong</text></g></g><g><g><path fill="none" stroke="none"/><text fill="#000000" stroke="none" font-family="Arial" font-size="13px" font-style="normal" font-weight="normal" text-decoration="undefined" x="381" y="476.5" text-anchor="start" dominant-baseline="central" transform="matrix(1 0 0 1 -54 -206)">-audioManager</text></g></g><g><g><path fill="none" stroke="none"/><text fill="#000000" stroke="none" font-family="Arial" font-size="13px" font-style="normal" font-weight="normal" text-decoration="undefined" x="381" y="499.5" text-anchor="start" dominant-baseline="central" transform="matrix(1 0 0 1 -54 -206)">+MainSong()</text></g></g><g><g><path fill="none" stroke="none"/><text fill="#000000" stroke="none" font-family="Arial" font-size="13px" font-style="normal" font-weight="normal" text-decoration="undefined" x="381" y="514.5" text-anchor="start" dominant-baseline="central" transform="matrix(1 0 0 1 -54 -206)">+OnEnterState()</text></g></g><g><g><path fill="none" stroke="none"/><text fill="#000000" stroke="none" font-family="Arial" font-size="13px" font-style="normal" font-weight="normal" text-decoration="undefined" x="381" y="529.5" text-anchor="start" dominant-baseline="central" transform="matrix(1 0 0 1 -54 -206)">+PlaySong()</text></g></g><g><path fill="none" stroke="#000000" paint-order="fill stroke markers" d=" M 409 233 L 485 116" stroke-miterlimit="10" stroke-dasharray=""/></g><g><path fill="#FFFFFF" stroke="none" paint-order="stroke fill markers" d=" M 480.98830732479485 137.63114240810472 L 485 116 L 466.8677774237433 128.4588323869088"/></g><g><path fill="none" stroke="#000000" paint-order="fill stroke markers" d=" M 480.98830732479485 137.63114240810472 L 485 116 L 466.8677774237433 128.4588323869088 L 480.98830732479485 137.63114240810472" stroke-miterlimit="10" stroke-dasharray=""/></g><g><rect fill="#C0C0C0" stroke="none" x="519" y="447" width="105.01806640625" height="101" transform="matrix(1 0 0 1 -54 -206)" fill-opacity="0.2"/></g><g><rect fill="#ffffff" stroke="none" x="512" y="440" width="105.01806640625" height="101" transform="matrix(1 0 0 1 -54 -206)"/></g><g><path fill="none" stroke="#000000" paint-order="fill stroke markers" d=" M 458 234 L 563.01806640625 234 L 563.01806640625 335 L 458 335 L 458 234 Z Z" stroke-miterlimit="10" stroke-dasharray=""/></g><g><path fill="none" stroke="#000000" paint-order="fill stroke markers" d=" M 458 259 L 564.01806640625 259" stroke-miterlimit="10" stroke-dasharray=""/></g><g><path fill="none" stroke="#000000" paint-order="fill stroke markers" d=" M 458 282 L 564.01806640625 282" stroke-miterlimit="10" stroke-dasharray=""/></g><g><g><path fill="none" stroke="none"/><text fill="#000000" stroke="none" font-family="Arial" font-size="13px" font-style="normal" font-weight="bold" text-decoration="undefined" x="565.009033203125" y="453.5" text-anchor="middle" dominant-baseline="central" transform="matrix(1 0 0 1 -54 -206)">MenuSong</text></g></g><g><g><path fill="none" stroke="none"/><text fill="#000000" stroke="none" font-family="Arial" font-size="13px" font-style="normal" font-weight="normal" text-decoration="undefined" x="517" y="476.5" text-anchor="start" dominant-baseline="central" transform="matrix(1 0 0 1 -54 -206)">+audioManager</text></g></g><g><g><path fill="none" stroke="none"/><text fill="#000000" stroke="none" font-family="Arial" font-size="13px" font-style="normal" font-weight="normal" text-decoration="undefined" x="517" y="499.5" text-anchor="start" dominant-baseline="central" transform="matrix(1 0 0 1 -54 -206)">+MenuSong()</text></g></g><g><g><path fill="none" stroke="none"/><text fill="#000000" stroke="none" font-family="Arial" font-size="13px" font-style="normal" font-weight="normal" text-decoration="undefined" x="517" y="514.5" text-anchor="start" dominant-baseline="central" transform="matrix(1 0 0 1 -54 -206)">+OnEnterState()</text></g></g><g><g><path fill="none" stroke="none"/><text fill="#000000" stroke="none" font-family="Arial" font-size="13px" font-style="normal" font-weight="normal" text-decoration="undefined" x="517" y="529.5" text-anchor="start" dominant-baseline="central" transform="matrix(1 0 0 1 -54 -206)">+PlaySong()</text></g></g><g><path fill="none" stroke="#000000" paint-order="fill stroke markers" d=" M 510 233 L 510 116" stroke-miterlimit="10" stroke-dasharray=""/></g><g><path fill="#FFFFFF" stroke="none" paint-order="stroke fill markers" d=" M 518.419035512032 136.3253497152483 L 510 116 L 501.580964487968 136.3253497152483"/></g><g><path fill="none" stroke="#000000" paint-order="fill stroke markers" d=" M 518.419035512032 136.3253497152483 L 510 116 L 501.580964487968 136.3253497152483 L 518.419035512032 136.3253497152483" stroke-miterlimit="10" stroke-dasharray=""/></g><g><rect fill="#C0C0C0" stroke="none" x="655" y="447" width="120.1826171875" height="101" transform="matrix(1 0 0 1 -54 -206)" fill-opacity="0.2"/></g><g><rect fill="#ffffff" stroke="none" x="648" y="440" width="120.1826171875" height="101" transform="matrix(1 0 0 1 -54 -206)"/></g><g><path fill="none" stroke="#000000" paint-order="fill stroke markers" d=" M 594 234 L 714.1826171875 234 L 714.1826171875 335 L 594 335 L 594 234 Z Z" stroke-miterlimit="10" stroke-dasharray=""/></g><g><path fill="none" stroke="#000000" paint-order="fill stroke markers" d=" M 594 259 L 715.1826171875 259" stroke-miterlimit="10" stroke-dasharray=""/></g><g><path fill="none" stroke="#000000" paint-order="fill stroke markers" d=" M 594 282 L 715.1826171875 282" stroke-miterlimit="10" stroke-dasharray=""/></g><g><g><path fill="none" stroke="none"/><text fill="#000000" stroke="none" font-family="Arial" font-size="13px" font-style="normal" font-weight="bold" text-decoration="undefined" x="708.59130859375" y="453.5" text-anchor="middle" dominant-baseline="central" transform="matrix(1 0 0 1 -54 -206)">GameOverSong</text></g></g><g><g><path fill="none" stroke="none"/><text fill="#000000" stroke="none" font-family="Arial" font-size="13px" font-style="normal" font-weight="normal" text-decoration="undefined" x="653" y="476.5" text-anchor="start" dominant-baseline="central" transform="matrix(1 0 0 1 -54 -206)">+audioManager</text></g></g><g><g><path fill="none" stroke="none"/><text fill="#000000" stroke="none" font-family="Arial" font-size="13px" font-style="normal" font-weight="normal" text-decoration="undefined" x="653" y="499.5" text-anchor="start" dominant-baseline="central" transform="matrix(1 0 0 1 -54 -206)">+GameOverSong()</text></g></g><g><g><path fill="none" stroke="none"/><text fill="#000000" stroke="none" font-family="Arial" font-size="13px" font-style="normal" font-weight="normal" text-decoration="undefined" x="653" y="514.5" text-anchor="start" dominant-baseline="central" transform="matrix(1 0 0 1 -54 -206)">+OnEnterState()</text></g></g><g><g><path fill="none" stroke="none"/><text fill="#000000" stroke="none" font-family="Arial" font-size="13px" font-style="normal" font-weight="normal" text-decoration="undefined" x="653" y="529.5" text-anchor="start" dominant-baseline="central" transform="matrix(1 0 0 1 -54 -206)">+PlaySong()</text></g></g><g><path fill="none" stroke="#000000" paint-order="fill stroke markers" d=" M 618 233 L 537 116" stroke-miterlimit="10" stroke-dasharray=""/></g><g><path fill="#FFFFFF" stroke="none" paint-order="stroke fill markers" d=" M 555.4914571402994 127.9191448027309 L 537 116 L 541.6473266219707 137.50354285388158"/></g><g><path fill="none" stroke="#000000" paint-order="fill stroke markers" d=" M 555.4914571402994 127.9191448027309 L 537 116 L 541.6473266219707 137.50354285388158 L 555.4914571402994 127.9191448027309" stroke-miterlimit="10" stroke-dasharray=""/></g></g></svg>